<svg width="98" height="30" viewBox="0 0 98 30" fill="none" xmlns="http://www.w3.org/2000/svg">
<path d="M6.521 24.7041C4.5722 24.7041 2.99816 24.0698 1.7989 22.8013C0.599633 21.5117 0 19.7252 0 17.4419C0 14.4609 0.781664 12.0402 2.34499 10.1797C3.90832 8.31928 5.95349 7.38905 8.48052 7.38905C11.029 7.38905 12.7743 8.36157 13.7166 10.3066L15.3228 0.253744H19.9806L16.961 19.2812C16.6184 21.4377 16.5006 23.129 16.6077 24.3552H12.0462C11.9605 23.5096 11.9605 22.611 12.0462 21.6597C10.7827 23.6893 8.94095 24.7041 6.521 24.7041ZM8.22353 21.2157C9.63695 21.2157 10.7934 20.6449 11.6928 19.5032C12.5923 18.3616 13.042 16.8077 13.042 14.8415C13.042 13.5941 12.7101 12.6216 12.0462 11.9239C11.4037 11.2263 10.5257 10.8774 9.41209 10.8774C7.99867 10.8774 6.87436 11.4588 6.03916 12.6216C5.20395 13.7633 4.78635 15.2643 4.78635 17.1248C4.78635 18.4144 5.08617 19.4187 5.6858 20.1375C6.28543 20.8563 7.13134 21.2157 8.22353 21.2157Z" fill="white"/>
<path d="M27.1596 24.7041C24.8039 24.7041 22.8551 24.0381 21.3132 22.7062C19.7713 21.3531 19.0004 19.5138 19.0004 17.1882C19.0004 14.3764 19.8891 12.0508 21.6666 10.2115C23.4441 8.351 25.6927 7.42076 28.4124 7.42076C30.811 7.42076 32.7705 8.08673 34.291 9.41865C35.8329 10.7506 36.6038 12.5899 36.6038 14.9366C36.6038 17.7907 35.7258 20.1375 33.9697 21.9768C32.2137 23.795 29.9436 24.7041 27.1596 24.7041ZM27.2881 21.2157C28.723 21.2157 29.8473 20.6237 30.6611 19.4398C31.4748 18.2347 31.8817 16.6914 31.8817 14.8098C31.8817 13.6258 31.5819 12.6745 30.9823 11.9556C30.3827 11.2368 29.4939 10.8774 28.3161 10.8774C26.8812 10.8774 25.7462 11.4694 24.911 12.6533C24.0758 13.8373 23.6582 15.3595 23.6582 17.2199C23.6582 18.425 23.958 19.3975 24.5577 20.1375C25.1573 20.8563 26.0674 21.2157 27.2881 21.2157Z" fill="white"/>
<path d="M42.1627 24.7041C40.5351 24.7041 39.2287 24.2918 38.2436 23.4673C37.2799 22.6216 36.7981 21.48 36.7981 20.0423C36.7981 16.3003 39.6571 14.4292 45.375 14.4292H48.1376L48.2339 13.7315C48.3838 12.7167 48.2768 11.9662 47.9127 11.48C47.5701 10.9726 46.8848 10.7189 45.8568 10.7189C44.2292 10.7189 43.2334 11.5011 42.8694 13.0656H38.4364C38.8433 11.1417 39.7213 9.71463 41.0705 8.7844C42.4411 7.85417 44.1115 7.38905 46.0817 7.38905C48.5445 7.38905 50.3648 7.95988 51.5426 9.10153C52.7419 10.222 53.1488 11.9345 52.7633 14.2389L51.9602 19.2812C51.6176 21.3743 51.5212 23.0656 51.6711 24.3552H47.2381C47.131 23.7421 47.0989 22.981 47.1418 22.0719C45.9425 23.8267 44.2828 24.7041 42.1627 24.7041ZM43.7367 21.5328C44.7218 21.5328 45.5463 21.2685 46.2102 20.74C46.8955 20.1903 47.3131 19.4292 47.463 18.4567L47.6878 17.1565H45.5035C44.0686 17.1565 43.0193 17.3468 42.3554 17.7273C41.7129 18.0867 41.3917 18.6998 41.3917 19.5666C41.3917 20.1375 41.5951 20.6132 42.002 20.9937C42.4089 21.3531 42.9872 21.5328 43.7367 21.5328Z" fill="white"/>
<path d="M54.6686 7.7696H56.8851L57.2706 5.35945C57.5704 3.54127 58.2771 2.19878 59.3907 1.33197C60.5257 0.44402 61.9392 4.57764e-05 63.631 4.57764e-05C64.6589 4.57764e-05 65.5691 0.137466 66.3614 0.412306L65.8153 3.83726C65.3228 3.64698 64.7767 3.55184 64.1771 3.55184C62.8707 3.55184 62.0891 4.28123 61.8321 5.74L61.5108 7.7696H65.1729L64.6589 11.036H60.9648L58.8446 24.3552H54.2189L56.339 11.036H54.1546L54.6686 7.7696Z" fill="white"/>
<path d="M67.9018 0.253744H72.5276L68.6728 24.3552H64.0471L67.9018 0.253744Z" fill="white"/>
<path d="M79.1768 4.78863C78.6843 5.25375 78.0632 5.4863 77.3137 5.4863C76.5641 5.4863 75.9431 5.25375 75.4505 4.78863C74.958 4.32351 74.7117 3.73155 74.7117 3.01273C74.7117 2.31506 74.958 1.73366 75.4505 1.26854C75.9645 0.782286 76.5963 0.539157 77.3458 0.539157C78.0953 0.539157 78.7164 0.771715 79.2089 1.23683C79.7015 1.70195 79.9478 2.28334 79.9478 2.98102C79.9478 3.69983 79.6908 4.30237 79.1768 4.78863ZM74.3262 7.7696H78.952L76.2857 24.3552H71.66L74.3262 7.7696Z" fill="white"/>
<path d="M91.7039 7.38905C93.5456 7.38905 95.0554 8.03387 96.2332 9.32351C97.4111 10.592 98 12.3468 98 14.5878C98 17.5688 97.2397 20 95.7193 21.8817C94.1988 23.7633 92.2178 24.7041 89.7765 24.7041C88.3845 24.7041 87.2173 24.4081 86.275 23.8161C85.3328 23.203 84.6582 22.4419 84.2513 21.5328L82.9021 30H78.2764L80.9747 13.0339C81.2317 11.406 81.4244 9.65121 81.5529 7.7696H86.0181C86.0181 8.7844 85.9752 9.7252 85.8896 10.592C87.2173 8.45671 89.1554 7.38905 91.7039 7.38905ZM88.6843 21.184C90.0763 21.184 91.1685 20.6132 91.9608 19.4715C92.7746 18.3087 93.1815 16.7865 93.1815 14.9049C93.1815 13.5941 92.8924 12.5899 92.3142 11.8922C91.736 11.1945 90.9008 10.8457 89.8086 10.8457C88.3738 10.8457 87.1959 11.4377 86.275 12.6216C85.3542 13.7844 84.8937 15.3066 84.8937 17.1882C84.8937 18.4567 85.2257 19.4398 85.8896 20.1375C86.5534 20.8351 87.485 21.184 88.6843 21.184Z" fill="white"/>
</svg>
