<svg width="24" height="24" viewBox="0 0 24 24" fill="none" xmlns="http://www.w3.org/2000/svg">
<g clip-path="url(#clip0_2025_1864)">
<path d="M10 1.40503V5M12 3.44041V6.47865M14 1.40503V4.41265M0.582031 11.6159V18.8236C0.582031 19.5059 1.13513 20.059 1.81742 20.059V20.059C2.4997 20.059 3.0528 19.5059 3.0528 18.8236V15.3841C3.0528 15.0468 3.36943 14.7989 3.69631 14.8824C5.35335 15.3056 6.38145 15.6193 7.38886 15.8277C8.96745 16.1542 10.2674 17.4198 10.2674 19.0318V20.2888C10.2674 21.2339 11.0335 22 11.9786 22V22C12.9236 22 13.6897 21.2339 13.6897 20.2888V19.0291C13.6897 17.4173 14.9878 16.1502 16.5668 15.8266C17.602 15.6144 18.6374 15.2964 20.3211 14.8772C20.6473 14.7959 20.9616 15.0438 20.9616 15.3799V18.7828C20.9616 19.4876 21.533 20.059 22.2378 20.059V20.059C22.9426 20.059 23.514 19.4876 23.514 18.7828V11.6159C23.3506 7.39425 0.58228 7.82998 0.582031 11.6159Z" stroke="black" stroke-linecap="round"/>
<path d="M19.8939 11.3547C19.894 11.3547 19.8937 11.3555 19.893 11.357C19.8935 11.3555 19.8938 11.3547 19.8939 11.3547ZM19.8535 11.3569C19.8628 11.3667 19.8701 11.3751 19.8758 11.3821C19.8701 11.3891 19.8628 11.3975 19.8535 11.4073C19.7927 11.4707 19.678 11.5559 19.4868 11.6525C19.1061 11.8447 18.5226 12.0323 17.7603 12.1951C16.2438 12.519 14.1253 12.7234 11.769 12.7234C9.41277 12.7234 7.29429 12.519 5.7778 12.1951C5.01546 12.0323 4.43199 11.8447 4.05128 11.6525C3.86012 11.5559 3.74538 11.4707 3.68463 11.4073C3.67526 11.3975 3.66795 11.3891 3.6623 11.3821C3.66795 11.3751 3.67526 11.3667 3.68463 11.3569C3.74538 11.2935 3.86012 11.2082 4.05128 11.1117C4.43199 10.9194 5.01546 10.7319 5.7778 10.569C7.29429 10.2451 9.41277 10.0408 11.769 10.0408C14.1253 10.0408 16.2438 10.2451 17.7603 10.569C18.5226 10.7319 19.1061 10.9194 19.4868 11.1117C19.678 11.2082 19.7927 11.2935 19.8535 11.3569ZM3.64419 11.3547C3.64425 11.3547 3.64462 11.3555 3.64512 11.357C3.64438 11.3555 3.64413 11.3547 3.64419 11.3547ZM3.64419 11.4094C3.64413 11.4094 3.64438 11.4087 3.64512 11.4072C3.64462 11.4087 3.64425 11.4094 3.64419 11.4094ZM19.893 11.4072C19.8937 11.4087 19.894 11.4094 19.8939 11.4094C19.8938 11.4094 19.8935 11.4087 19.893 11.4072Z" stroke="black"/>
</g>
<defs>
<clipPath id="clip0_2025_1864">
<rect width="24" height="24" fill="white"/>
</clipPath>
</defs>
</svg>
