<svg width="24" height="24" viewBox="0 0 24 24" fill="none" xmlns="http://www.w3.org/2000/svg">
<path d="M0.706055 5.54663C1.75257 5.92723 2.74575 6.2642 3.69824 6.55693M23.2936 5.54663C22.3992 5.88485 21.5437 6.18734 20.7192 6.45448M3.69824 6.55693L2.31945 17.3782M3.69824 6.55693C5.71102 7.17553 7.54209 7.59661 9.31084 7.81461M2.31945 17.3782L8.77304 16.3026M2.31945 17.3782V17.3782C2.07378 18.1152 2.69471 18.8511 3.46255 18.733L8.24149 17.9978C8.5473 17.9507 8.77304 17.6876 8.77304 17.3782V17.3782M8.77304 16.3026V17.3782M8.77304 16.3026L9.31084 7.81461M8.77304 17.3782V17.3782C8.84418 18.1813 9.51687 18.797 10.3231 18.797H13.9436C14.7272 18.797 15.3624 18.1618 15.3624 17.3782V17.3782M8.77304 17.3782H15.3624M9.31084 7.81461C11.1911 8.04635 13.0009 8.04858 14.8837 7.81461M15.3624 17.3782L14.8837 7.81461M15.3624 17.3782L20.5061 15.9424C20.8717 15.8404 21.2568 16.0215 21.4113 16.3682V16.3682M15.3624 17.3782V17.3782C15.6465 18.1708 16.5058 18.5976 17.309 18.3452L21.05 17.1696C21.3857 17.0641 21.5546 16.6897 21.4113 16.3682V16.3682M14.8837 7.81461C16.7157 7.58694 18.6169 7.13562 20.7192 6.45448M21.4113 16.3682L20.7192 6.45448" stroke="black"/>
<circle cx="3.74426" cy="6.6134" r="1.1134" fill="white" stroke="black"/>
<circle cx="9.49523" cy="7.83972" r="1.1134" fill="white" stroke="black"/>
<circle cx="15.0568" cy="7.83972" r="1.1134" fill="white" stroke="black"/>
<circle cx="20.8028" cy="6.74572" r="1.1134" fill="white" stroke="black"/>
</svg>
