<svg width="24" height="24" viewBox="0 0 24 24" fill="none" xmlns="http://www.w3.org/2000/svg">
<path d="M3.20724 16.1014V16.5173C1.6643 16.0327 0.5 14.4785 0.5 12.5875C0.5 10.292 2.20971 8.50024 4.23684 8.50024C6.26398 8.50024 7.97368 10.292 7.97368 12.5875C7.97368 14.4785 6.80939 16.0327 5.26645 16.5173V16.1014H4.76645H3.70724H3.20724Z" fill="white" stroke="black"/>
<mask id="path-2-inside-1_2025_1888" fill="white">
<path d="M12.4211 15.3131C12.3186 15.3131 11.9149 15.3024 11.8158 15.2815V16.8422H12.4211V15.3131Z"/>
<path d="M13.0263 15.2815C12.9272 15.3024 12.5235 15.3131 12.4211 15.3131V16.8422H13.0263V15.2815Z"/>
<path d="M12.7237 14.8034H12.1184L11.8158 15.2815C11.9149 15.3024 12.3186 15.3131 12.4211 15.3131C12.5235 15.3131 12.9272 15.3024 13.0263 15.2815L12.7237 14.8034Z"/>
<path d="M12.4211 7.15796C11.0839 7.15796 10 8.98355 10 11.2355C10 13.3149 10.6215 15.0307 11.8158 15.2815L12.1184 14.8034H12.7237L13.0263 15.2815C14.2206 15.0307 14.8421 13.3149 14.8421 11.2355C14.8421 8.98355 13.7582 7.15796 12.4211 7.15796Z"/>
</mask>
<path d="M12.4211 15.3131C12.3186 15.3131 11.9149 15.3024 11.8158 15.2815V16.8422H12.4211V15.3131Z" fill="white"/>
<path d="M13.0263 15.2815C12.9272 15.3024 12.5235 15.3131 12.4211 15.3131V16.8422H13.0263V15.2815Z" fill="white"/>
<path d="M12.7237 14.8034H12.1184L11.8158 15.2815C11.9149 15.3024 12.3186 15.3131 12.4211 15.3131C12.5235 15.3131 12.9272 15.3024 13.0263 15.2815L12.7237 14.8034Z" fill="white"/>
<path d="M12.4211 7.15796C11.0839 7.15796 10 8.98355 10 11.2355C10 13.3149 10.6215 15.0307 11.8158 15.2815L12.1184 14.8034H12.7237L13.0263 15.2815C14.2206 15.0307 14.8421 13.3149 14.8421 11.2355C14.8421 8.98355 13.7582 7.15796 12.4211 7.15796Z" fill="white"/>
<path d="M12.7237 14.8034L13.1462 14.536L12.999 14.3034H12.7237V14.8034ZM12.1184 14.8034V14.3034H11.8431L11.6959 14.536L12.1184 14.8034ZM11.8158 15.2815L11.3933 15.0141L11.0081 15.6228L11.713 15.7709L11.8158 15.2815ZM13.0263 15.2815L13.1291 15.7709L13.834 15.6228L13.4488 15.0141L13.0263 15.2815ZM11.9211 15.3131V16.8422H12.9211V15.3131H11.9211ZM12.7237 14.3034H12.1184V15.3034H12.7237V14.3034ZM12.4211 14.8131C12.3791 14.8131 12.26 14.8107 12.1381 14.8056C12.0778 14.803 12.0206 14.8 11.9745 14.7966C11.9184 14.7925 11.9062 14.7896 11.9186 14.7922L11.713 15.7709C11.8126 15.7918 11.9871 15.8001 12.0962 15.8047C12.2266 15.8101 12.3605 15.8131 12.4211 15.8131V14.8131ZM11.6959 14.536L11.3933 15.0141L12.2383 15.5489L12.5409 15.0708L11.6959 14.536ZM12.9235 14.7922C12.9359 14.7896 12.9237 14.7925 12.8676 14.7966C12.8215 14.8 12.7643 14.803 12.704 14.8056C12.5821 14.8107 12.463 14.8131 12.4211 14.8131V15.8131C12.4816 15.8131 12.6155 15.8101 12.7459 15.8047C12.855 15.8001 13.0295 15.7918 13.1291 15.7709L12.9235 14.7922ZM13.4488 15.0141L13.1462 14.536L12.3012 15.0708L12.6038 15.5489L13.4488 15.0141ZM11.8158 16.8422H10.8158V17.8422H11.8158V16.8422ZM13.0263 16.8422V17.8422H14.0263V16.8422H13.0263ZM11.8158 15.2815H12.8158V14.4697L12.0213 14.3029L11.8158 15.2815ZM13.0263 15.2815L12.8208 14.3029L12.0263 14.4697V15.2815H13.0263ZM11 11.2355C11 10.2578 11.2374 9.42123 11.569 8.86279C11.9133 8.28277 12.247 8.15796 12.4211 8.15796V6.15796C11.258 6.15796 10.3811 6.94594 9.84926 7.84171C9.30458 8.75905 9 9.96128 9 11.2355H11ZM12.4211 8.15796C12.5951 8.15796 12.9288 8.28277 13.2731 8.86279C13.6047 9.42123 13.8421 10.2578 13.8421 11.2355H15.8421C15.8421 9.96128 15.5375 8.75905 14.9929 7.84171C14.461 6.94594 13.5841 6.15796 12.4211 6.15796V8.15796ZM12.4211 15.8422H11.8158V17.8422H12.4211V15.8422ZM12.4211 17.8422H13.0263V15.8422H12.4211V17.8422ZM10.8158 15.2815V16.8422H12.8158V15.2815H10.8158ZM12.0213 14.3029C11.8799 14.2732 11.6235 14.1279 11.381 13.5546C11.1447 12.9961 11 12.1905 11 11.2355H9C9 12.3599 9.16601 13.4519 9.53905 14.3338C9.9059 15.2011 10.5574 16.0391 11.6103 16.2602L12.0213 14.3029ZM14.0263 16.8422V15.2815H12.0263V16.8422H14.0263ZM13.8421 11.2355C13.8421 12.1905 13.6974 12.9961 13.4611 13.5546C13.2186 14.1279 12.9622 14.2732 12.8208 14.3029L13.2319 16.2602C14.2847 16.0391 14.9362 15.2011 15.3031 14.3338C15.6761 13.4519 15.8421 12.3599 15.8421 11.2355H13.8421Z" fill="black" mask="url(#path-2-inside-1_2025_1888)"/>
<path d="M18.414 16.1457V16.4854C17.1772 16.0309 16.2363 14.7071 16.2363 13.0778C16.2363 11.0459 17.6913 9.50024 19.3679 9.50024C21.0446 9.50024 22.4995 11.0459 22.4995 13.0778C22.4995 14.7071 21.5586 16.0309 20.3219 16.4854V16.1457H19.8219H18.914H18.414Z" fill="white" stroke="black"/>
<path d="M1.5 19.5003C9.73046 16.0615 14.2375 16.2133 22 19.5003" stroke="black" stroke-linecap="round"/>
</svg>
