<svg width="74" height="74" viewBox="0 0 74 74" fill="none" xmlns="http://www.w3.org/2000/svg">
<path d="M21.584 28.752C21.584 25.904 22.24 23.744 23.552 22.272C24.864 20.768 26.896 20.016 29.648 20.016C32.24 20.016 34.192 20.752 35.504 22.224C36.848 23.664 37.52 25.744 37.52 28.464V29.328H32.528V28.128C32.528 26.912 32.272 26.064 31.76 25.584C31.28 25.072 30.624 24.816 29.792 24.816C28.864 24.816 28.144 25.104 27.632 25.68C27.12 26.256 26.864 27.344 26.864 28.944V35.088C27.792 33.104 29.424 32.112 31.76 32.112C33.712 32.112 35.168 32.768 36.128 34.08C37.12 35.392 37.616 37.296 37.616 39.792V45.936C37.616 48.656 36.928 50.752 35.552 52.224C34.176 53.664 32.192 54.384 29.6 54.384C27.008 54.384 25.024 53.664 23.648 52.224C22.272 50.752 21.584 48.656 21.584 45.936V28.752ZM29.6 36.912C28.768 36.912 28.096 37.168 27.584 37.68C27.104 38.16 26.864 39.008 26.864 40.224V46.272C26.864 47.488 27.104 48.336 27.584 48.816C28.096 49.296 28.768 49.536 29.6 49.536C30.432 49.536 31.088 49.296 31.568 48.816C32.08 48.336 32.336 47.488 32.336 46.272V40.224C32.336 39.008 32.08 38.16 31.568 37.68C31.088 37.168 30.432 36.912 29.6 36.912ZM50.4073 35.328H56.8393V39.072H50.4073V45.648H46.6633V39.072H40.2313V35.328H46.6633V28.848H50.4073V35.328Z" fill="white"/>
<circle cx="37" cy="37" r="35" stroke="white" stroke-width="4"/>
</svg>
